PathFileType	4	(X/Y/Z)	C:\Users\°ÂÌØÂü\Desktop\20210112\bx_n_0_503-Unnamed.trc
DataRate	CameraRate	NumFrames	NumMarkers	Units	OrigDataRate	OrigDataStartFrame	OrigNumFrames
50.00	50.00	       8	0	mm	50.00	250	       333
Frame#	Time	
		

250	4.980	-544.58594	115.76643	1813.76648	-590.41724	288.90863	1509.44324	-549.98511	115.06856	1304.07654	-642.90338	-6.00295	807.72302	-726.69977	144.61081	574.41925	-647.84607	224.55464	799.37677	-746.54205	274.82541	742.74707	-771.02185	254.85785	638.30414	-705.41974	205.92061	536.79376	-793.93658	260.79437	497.82196	-518.02222	-72.83799	143.11696	-726.86255	73.33884	571.14294	-550.03070	-22.97269	162.79524	-675.55646	52.04360	160.96944	-796.48016	181.59261	183.20761	-767.30273	228.85255	204.43005	-589.92120	208.15474	174.30237	-882.50342	296.22003	144.72592	-553.39703	242.64951	165.83708	-652.50897	291.74084	156.48613	-615.46100	297.82016	158.58798	-528.06592	303.81247	146.43332	-562.56049	-69.15334	1506.49500	-858.07520	91.78548	1076.05969	-794.85944	36.68821	173.70824	-783.69379	-47.34979	485.43280	-601.77850	28.68555	167.44093	-875.34509	-78.83866	141.04590	-724.73004	-69.04888	875.34296	-734.40546	-62.39161	757.61859	-723.71887	67.56655	217.89670	-742.92181	-35.76954	614.12439	-747.21429	-33.80687	568.30884	-717.50592	151.97392	219.44035	-675.85468	167.24043	159.52853	-606.05780	-71.90598	158.26349	-648.13763	-67.59692	161.78156	-762.26532	-21.31907	205.68893	-694.57953	14.60158	522.70856	-669.45874	241.84677	1060.93921	-654.42163	-2.16791	1046.25452				-752.17975	285.67935	875.10864				-760.99927	248.70427	574.05621	
251	5.000	-551.74286	115.09684	1816.89551	-594.57861	289.39398	1512.89734	-551.44733	115.20959	1307.22241	-640.63092	-5.84101	807.46075	-725.13873	144.77254	574.93561	-645.75421	224.51563	799.19641	-744.53833	274.89597	743.04120	-769.49292	255.03059	638.16998	-704.40472	206.51675	536.52606	-792.45532	260.81592	497.34930	-517.83282	-72.87903	143.14296	-726.07385	73.65729	571.04266	-549.88971	-23.07717	162.95215	-675.53363	52.26562	160.74995	-796.53827	181.64597	183.22517	-767.20972	228.90605	204.58304	-589.98151	208.30867	174.29272	-882.49219	295.98785	144.58929	-553.20074	242.67516	165.88881	-652.61761	291.85617	156.40993	-615.46100	297.82016	158.58798	-528.12897	303.98337	146.39668	-566.89197	-69.35332	1509.22595	-856.01581	91.90351	1075.61694	-794.74200	36.66623	173.76749	-782.91302	-47.26818	485.79388	-601.63098	28.66711	167.48543	-875.95856	-78.73984	141.27766	-722.04187	-68.93967	875.63519	-732.53613	-61.73382	757.76599	-723.86340	66.90694	217.17732	-741.80438	-35.38699	614.25769	-746.14026	-33.63407	568.55042	-716.89185	151.71831	219.63829	-675.68274	167.18127	159.43893	-606.04266	-71.70136	158.23219	-648.04230	-67.60835	162.01277	-762.13763	-21.19830	205.76385	-693.54645	14.82968	522.59192	-667.20923	242.47829	1061.43640	-652.31641	-1.42756	1046.61987				-749.88660	285.88962	874.79944				-760.11963	248.59045	574.18970	
252	5.020	-558.69617	114.54150	1820.01025	-599.19611	289.32376	1515.17981	-552.73969	115.56759	1310.02783	-638.43597	-5.98960	807.47321	-724.33905	144.99420	575.01343	-643.63922	224.92180	799.27820	-742.48016	274.77185	742.93243	-768.00427	255.39917	638.32489	-702.94830	206.23721	536.63959	-791.43384	260.98291	497.67081	-517.87372	-72.95023	143.21095	-724.54755	73.36507	571.16284	-549.84229	-22.94487	162.83867	-675.59094	52.36110	160.49614	-796.38910	181.55865	183.29041	-767.20972	228.90605	204.58304	-589.93036	208.14752	174.16571	-882.49835	296.27173	144.77898	-553.23022	242.61061	165.96524	-652.51794	291.70486	156.56815	-615.39874	297.83887	158.52104	-528.03400	303.71320	146.48929	-571.58252	-69.47285	1511.67834	-854.07050	92.46143	1075.22009	-794.57184	36.81578	173.84467	-782.21533	-46.81440	486.14886	-600.96240	28.51169	167.55721	-875.99792	-78.69180	141.55168	-719.79022	-68.50681	875.69116	-730.54480	-61.39413	757.52338	-723.64954	66.98346	216.96719	-740.38519	-35.12062	614.65991	-744.91571	-33.20187	568.12421	-717.16046	151.89207	219.40256	-675.85468	167.24043	159.52853	-606.01477	-71.86362	158.33467	-648.30615	-67.58171	162.02580	-762.17090	-21.30334	205.83743	-692.42310	14.72240	522.31140	-664.94257	242.63286	1061.66028	-649.89270	-1.18034	1047.09167				-747.46716	286.57352	875.29388				-758.49304	248.46381	573.79956	
253	5.040	-565.58478	114.19868	1823.04810	-603.68500	289.56024	1517.59265	-554.01343	115.74417	1312.79333	-636.36047	-5.33308	807.32751	-722.66382	145.23331	574.99408	-641.53668	225.06190	799.31293	-740.28143	275.23331	743.33441	-766.26660	255.53709	638.73395	-701.70587	206.27649	536.65112	-790.19580	261.15997	498.09872	-517.85974	-73.07893	143.17383	-723.40033	73.52113	570.98505	-550.01508	-23.06544	163.00786	-675.62158	52.28714	160.61887	-796.26227	181.45663	183.30998	-767.16431	228.79605	204.47510	-589.84033	208.19595	174.11134	-882.59625	296.22037	144.63243	-553.42102	242.88022	165.80699	-652.60992	291.72208	156.61783	-615.44806	297.71411	158.45029	-528.12683	304.04297	146.50967	-575.51361	-69.66297	1514.52478	-852.27045	92.56490	1074.92310	-794.55463	36.73475	174.07132	-780.91016	-46.29954	486.25250	-600.84692	28.61143	167.84732	-875.87335	-78.57735	141.34627	-717.09778	-68.94679	876.17072	-728.75623	-61.38793	757.88318	-723.40747	67.24065	217.27844	-739.33569	-34.77526	614.47839	-743.01508	-33.27134	568.57556	-716.39874	151.92996	219.17543	-675.83936	167.10349	159.30417	-606.14178	-71.79935	158.05418	-648.40149	-67.57028	161.79459	-762.21069	-21.12519	205.76801	-691.46271	15.02560	522.42230	-662.88824	243.22539	1062.26917	-647.70367	-0.98373	1047.95227				-745.26050	286.59647	875.00598				-757.09900	249.27930	574.17548	
254	5.060	-572.19263	113.40562	1825.72644	-607.76361	289.66318	1519.85559	-555.21198	115.66587	1315.52808	-634.34595	-4.81694	807.37976	-721.52740	145.74446	574.79852	-639.21149	225.45244	799.57928	-738.52783	275.28854	743.13403	-764.43842	255.85562	638.67096	-700.24792	206.34557	536.41833	-789.05420	261.26877	498.14047	-517.81085	-72.96118	143.22667	-721.86053	74.05141	571.11694	-549.77881	-23.21804	162.93512	-675.62158	52.28714	160.61887	-796.34259	181.46754	183.35849	-767.10455	228.82532	204.69092	-589.72748	208.23337	174.34821	-882.53564	296.34229	144.85747	-553.41046	242.98676	165.90633	-652.51343	291.97046	156.56276	-615.39874	297.83887	158.52104	-528.08612	303.79639	146.32916	-580.13538	-69.73860	1516.31580	-850.15399	93.17262	1074.28809	-794.62366	36.94091	173.81198	-780.30945	-46.35210	486.41391	-600.71826	28.48719	167.76390	-875.85522	-78.73365	141.22168	-714.97717	-68.05499	875.83081	-726.84442	-60.93950	757.96796	-723.22369	67.41702	217.52686	-737.95850	-34.24742	614.54376	-741.56152	-33.31788	569.09265	-716.81293	152.28340	218.79619	-675.60681	167.19644	159.29556	-606.09229	-71.75378	158.13344	-648.36841	-67.68100	161.92128	-761.88330	-21.11786	205.99403	-690.56812	15.35551	522.27765	-660.86267	243.73640	1062.81897	-645.43140	-0.62716	1048.39868				-742.87048	286.47104	874.76038				-755.96295	249.32883	574.16766	
255	5.080	-578.96869	113.08498	1828.52112	-611.97876	289.97745	1521.90747	-556.36060	115.79462	1318.02808	-631.99078	-4.46431	807.28864	-719.89142	145.83380	575.08167	-636.74213	225.44206	799.39972	-736.23578	275.42764	743.12927	-762.79852	255.64427	638.79242	-699.31055	206.26947	536.13409	-787.83374	261.21649	498.23578	-517.91980	-73.01032	143.17534	-720.64966	74.03387	571.38647	-549.99207	-23.24184	162.89566	-675.62158	52.28714	160.61887	-796.34125	181.51825	183.41811	-766.96674	228.82199	204.87280	-589.63275	208.11667	174.17354	-882.60834	296.06894	144.52896	-553.22961	243.07156	165.76366	-652.60596	291.78287	156.50572	-615.39874	297.83887	158.52104	-527.91675	303.92825	146.47951	-584.70990	-70.26522	1518.90100	-847.80115	93.35970	1073.58545	-794.50848	37.09167	174.06415	-779.48938	-46.10279	486.90479	-600.77289	28.65246	167.69872	-875.85034	-78.68372	141.27127	-712.46277	-68.15807	876.06561	-724.81549	-60.96187	758.27954	-722.90265	68.13762	217.72557	-736.26471	-34.63693	614.91370	-740.34302	-33.40318	569.32666	-716.18561	152.00853	218.32689	-675.65851	167.01720	159.61809	-605.98236	-71.71654	158.27074	-648.38464	-67.39602	162.12947	-761.90240	-20.98843	205.97946	-689.13593	15.15619	522.19208	-658.33057	243.77180	1063.01733	-643.00073	0.01149	1049.20715				-740.48492	287.26218	875.22510				-754.04370	249.69864	574.40918	
256	5.100	-585.21503	112.84435	1830.83948	-616.31805	289.90408	1523.88708	-557.38147	115.97563	1320.74963	-629.86639	-4.19664	807.22339	-718.85016	145.60463	575.44299	-634.37396	226.11021	799.59082	-734.29388	275.22980	743.32410	-760.61456	256.03653	639.33600	-697.96265	206.47270	535.87756	-786.84076	261.38565	498.55637	-517.83282	-72.87903	143.14296	-719.02850	74.53568	571.49872	-549.87744	-23.42554	162.90953	-675.73688	52.26071	160.47633	-796.20618	181.46011	183.35655	-766.82800	228.38580	204.43933	-589.45074	207.92741	174.39108	-882.56696	296.28058	144.76720	-553.20837	242.99930	165.84294	-652.44672	291.88968	156.54042	-615.27576	297.88232	158.54578	-527.94629	303.84424	146.62753	-589.00153	-70.26412	1521.01489	-845.85956	93.84698	1073.06812	-793.97528	36.85264	173.56367	-778.13782	-45.46330	486.87311	-600.81604	28.44839	167.74596	-875.95856	-78.73984	141.27766	-709.94482	-67.40366	875.62610	-722.68225	-59.84030	757.83704	-722.49274	68.23984	217.57367	-734.75769	-34.50116	614.98810	-739.16034	-32.60949	569.11707	-716.11261	152.12042	218.45580	-675.44263	167.26953	159.34900	-606.15808	-71.66084	158.15414	-648.45636	-67.52058	162.22845	-761.76166	-21.07894	206.03221	-688.24316	15.66512	522.16199	-656.15247	244.14352	1063.45532	-640.96289	-0.03573	1049.44336				-737.67853	287.21097	875.13031				-753.34137	249.58327	574.25244	
257	5.120	-591.63037	112.54908	1833.30493	-620.41571	289.93619	1525.51367	-558.99078	116.09803	1323.24194	-627.69788	-3.53197	806.94556	-717.34772	145.89163	575.50354	-631.97443	225.65555	799.31226	-731.82288	275.27765	743.59052	-758.76270	256.23474	639.44397	-697.02911	206.66248	536.18274	-785.84674	261.82840	498.87198	-517.94177	-72.92817	143.09164	-717.71124	74.56795	571.41919	-549.91925	-23.29222	162.92133	-675.59094	52.36110	160.49614	-796.20618	181.46011	183.35655	-766.72992	228.49557	204.63437	-589.51508	207.99315	174.29141	-882.57111	296.04724	144.60146	-553.15277	243.12376	165.78314	-652.56348	291.79590	156.46472	-615.39874	297.83887	158.52104	-528.05219	303.87854	146.61902	-593.54071	-70.33667	1523.14966	-843.97870	94.64043	1072.70740	-794.29016	37.24852	174.06219	-777.45673	-45.38385	486.97055	-601.24402	28.66663	167.55240	-876.08313	-78.85428	141.48308	-707.81085	-67.16108	876.01514	-720.64105	-60.01457	758.16638	-722.40131	68.29781	217.28325	-733.30304	-34.29575	614.89441	-737.91241	-32.62620	569.20197	-716.79590	152.07977	218.37280	-675.66742	167.04433	159.21455	-606.03326	-71.81108	158.36211	-648.54449	-67.47295	162.19107	-761.76990	-21.06813	206.23131	-686.70453	15.34786	522.06812	-653.98718	244.32133	1063.62781	-638.50769	0.40338	1049.89197				-735.16248	287.88577	875.58972				-751.37994	249.68445	574.41498	
